# xmcd
#
# Track frame offsets:
#	150
#	22187
#	33752
#	44692
#	72297
#	86455
#	110750
#	125202
#	145330
#	161740
#	173272
#	185347
#	198162
#	209285
#	229950
#	241270
#	254795
#	267782
#	283365
#	301927
#	313637
#
# Disc length: 4447 seconds
#
# Revision: 2
# Processed by: cddbd v1.5.2PL0 Copyright (c) Steve Scherf et al.
# Submitted via: dBpowerAMP V4.0
#
DISCID=3a115d15
DTITLE=Various Artist - Οι δρόμοι του blues
DYEAR=1995
DGENRE=Blues
TTITLE0=Jhon Campbell - Down in the hole
TTITLE1=Etta James - I d rather go blind
TTITLE2=Screamin' Jay Hawkins - I put a spell on you
TTITLE3=Willie Dixon - Back Door Man
TTITLE4=Buddy Guy and JR.Wells - A poor man's plea
TTITLE5=B.B.King - The thrill is gone
TTITLE6=John Lee Hooker - Sugar Mama
TTITLE7=Dr. John - Junko partner
TTITLE8=Stevie Ray Vaughan and Double Trouble - Pride and Joy
TTITLE9=Albert Collins - Snow-cone II
TTITLE10=John Hammond - Shake for me
TTITLE11=Muddy Waters - Got my mojo working
TTITLE12=Bo Diddley - who do you love
TTITLE13=Alman Brothers Band - Let me ride
TTITLE14=Z.Z.Hill - Its a hang up baby
TTITLE15=Robert Johnson - Sweet Home Chicago
TTITLE16=Mike Bloomfield - Last Night
TTITLE17=Aretha Franklin - Taking another man's place
TTITLE18=Shuggie Otis - I cant stand to see you die
TTITLE19=Sonny Boy Williamson - Bring it on home
TTITLE20=Percy Mayfield - Nothing stays the same forever
EXTD=Billaki Lemon-Greece
EXTT0=
EXTT1=
EXTT2=
EXTT3=
EXTT4=
EXTT5=
EXTT6=
EXTT7=
EXTT8=
EXTT9=
EXTT10=
EXTT11=
EXTT12=
EXTT13=
EXTT14=
EXTT15=
EXTT16=
EXTT17=
EXTT18=
EXTT19=
EXTT20=
PLAYORDER=
